# xmcd
#
# Track frame offsets:
#	150
#	18167
#	37500
#	51392
#	66915
#	80422
#	94020
#	107865
#	123177
#	142067
#	158920
#	172970
#	186557
#	202877
#	218590
#	233080
#	251507
#	266512
#	283625
#	298972
#
# Disc length: 4178 seconds
#
# Revision: 1
# Processed by: cddbd v1.4PL0 Copyright (c) Steve Scherf et al.
# Submitted via: audiograbber 1.80
#
DISCID=1e105014
DTITLE=Crystal Gayle - Straight To The Heart - Nobody's Angel
DYEAR=1900
DGENRE=
TTITLE0=Straight To The Heart
TTITLE1=Cry
TTITLE2=Take This Heart
TTITLE3=A Little Bit Closer
TTITLE4=Do I Have To Say Goodbye
TTITLE5=Deep Down
TTITLE6=Crazy In The Heart
TTITLE7=Only Love Can Save Me Now
TTITLE8=Nobody Should Have To Love This Way
TTITLE9=Lonely Girl
TTITLE10=Nobody's Angel
TTITLE11=Prove Me Wrong
TTITLE12=Old Habits Die Hard
TTITLE13=Tennessee Nights
TTITLE14=When Love Is New
TTITLE15=Hopeless Romantic
TTITLE16=Love May Find You
TTITLE17=Love Found Me
TTITLE18=Heat
TTITLE19=After The Best
EXTD=
EXTT0=
EXTT1=
EXTT2=
EXTT3=
EXTT4=
EXTT5=
EXTT6=
EXTT7=
EXTT8=
EXTT9=
EXTT10=
EXTT11=
EXTT12=
EXTT13=
EXTT14=
EXTT15=
EXTT16=
EXTT17=
EXTT18=
EXTT19=
PLAYORDER=
